<svg xmlns="http://www.w3.org/2000/svg" width="26" height="36" fill="none"><path fill="#fff" d="M10.716 35.55a.335.335 0 0 1-.338-.334v-1.785l-.022-.025c-.376-.4-1.736-1.927-3.524-4.824-.493-.799-.933-1.9-1.355-2.966-.357-.898-.692-1.743-1.021-2.3L1.35 18.04a2.54 2.54 0 0 1 .951-3.502 2.62 2.62 0 0 1 1.98-.257c.673.175 1.233.599 1.584 1.192l2.398 4.077V3.563C8.263 2.15 9.433 1 10.87 1s2.607 1.15 2.607 2.563v6.988l.132-.079c.413-.248.88-.378 1.36-.378 1.204 0 2.272.836 2.54 1.989l.028.12.105-.066c.427-.275.92-.42 1.425-.42 1.243 0 2.317.868 2.557 2.066l.025.125.108-.07a2.64 2.64 0 0 1 1.41-.409c1.437 0 2.606 1.15 2.606 2.564v8.812q0 .109-.009.212c-.028 2.01-.652 3.344-1.69 5.554a84 84 0 0 1-1.428 2.875l-.009.018v1.755c0 .185-.15.333-.339.333H10.716z"/><path stroke="#231815" stroke-linecap="round" stroke-linejoin="round" d="M25.435 15.99c0-1.232-1.016-2.23-2.269-2.23a2.28 2.28 0 0 0-1.831.913v-.396c0-1.232-1.016-2.23-2.268-2.23a2.28 2.28 0 0 0-1.832.913v-.302c0-1.232-1.016-2.23-2.268-2.23a2.28 2.28 0 0 0-1.832.913V3.563c0-1.231-1.015-2.23-2.268-2.23s-2.269.999-2.269 2.23V20.79L5.57 15.639a2.29 2.29 0 0 0-3.1-.814 2.21 2.21 0 0 0-.828 3.047s1.73 2.945 3.103 5.278c.732 1.247 1.48 3.816 2.373 5.26 2.093 3.39 3.595 4.888 3.595 4.888v1.918h11.582v-1.834c.102-.19.834-1.598 1.468-2.95 1.038-2.216 1.635-3.502 1.66-5.43q.009-.096.009-.196v-8.813zM13.138 11.341v5.602M17.238 12.96v4.162M21.338 14.673v2.748M8.602 20.587v1.232"/></svg>